<?xml version="1.0" encoding="utf-8"?>
<!-- Generator: Adobe Illustrator 21.1.0, SVG Export Plug-In . SVG Version: 6.00 Build 0)  -->
<svg version="1.1" id="圖層_1" xmlns="http://www.w3.org/2000/svg" xmlns:xlink="http://www.w3.org/1999/xlink" x="0px" y="0px"
	 viewBox="0 0 120 24" style="enable-background:new 0 0 120 24;" xml:space="preserve">
<style type="text/css">
	.st0{fill:#FFFFFF;}
</style>
<title>logo_w</title>
<desc>Created with Sketch.</desc>
<g>
	<path class="st0" d="M0.4,4.3h2.5V0.1h2.6v4.2h1.6v2.8H5.5v1.2c1.1,0.9,2,1.8,2.9,3l-1.9,2.6c-0.3-0.5-0.6-0.9-1-1.3v11.1H2.9v-8.9
		c-0.4,1.3-0.8,2.5-1.4,3.7l-1.7-2.3c0.6-1.1,1.2-2.7,1.9-4.8c0.5-1.3,0.9-2.8,1.2-4.3V7.1H0.4V4.3z M12.6,13.8v9.9H9.9V14
		c-0.7,1.9-1.4,3.7-2.3,5.3L5.9,17c0.8-1.2,1.6-2.9,2.4-5.1c0.6-1.5,1.1-3.1,1.6-4.8H7.6V4.3h2.3V0.1h2.6v4.2h2.3v2.8h-2.3v2.2
		c1.2,1.1,2.2,2.4,3.1,3.7l-1.9,2.6C13.4,14.9,13,14.3,12.6,13.8z M20.5,15.1l2.1,1.8c-0.9,1.2-2.1,2.4-3.5,3.6
		c-1.5,1.2-2.9,2.1-4.1,2.7l-1.5-2.7c1.1-0.5,2.4-1.3,3.8-2.4C18.5,17.1,19.6,16.1,20.5,15.1z M19.7,0.7l2.1,1.8
		c-0.6,0.9-1.4,1.8-2.3,2.6c-1,0.9-2,1.5-2.8,1.9l-1.4-2.7C16,4,16.7,3.5,17.6,2.8C18.4,2.1,19.1,1.4,19.7,0.7z M20.2,7.7l2.2,2
		c-0.7,0.9-1.5,1.7-2.5,2.6c-1.1,0.9-2.1,1.5-2.9,1.9l-1.5-2.7C16.2,11,17,10.5,18,9.8C18.8,9.1,19.6,8.4,20.2,7.7z"/>
	<path class="st0" d="M24.7,4.3h2.5V0.1h2.6v4.2h1.6v2.8h-1.6v1.2c1.1,0.9,2,1.8,2.9,3l-1.9,2.6c-0.3-0.5-0.6-0.9-1-1.3v11.1h-2.6
		v-8.9c-0.4,1.3-0.8,2.5-1.4,3.7l-1.7-2.3c0.6-1.1,1.2-2.7,1.9-4.8c0.5-1.3,0.9-2.8,1.2-4.3V7.1h-2.5V4.3z M36.9,13.8v9.9h-2.6V14
		c-0.7,1.9-1.4,3.7-2.3,5.3L30.3,17c0.8-1.2,1.6-2.9,2.4-5.1c0.6-1.5,1.1-3.1,1.6-4.8H32V4.3h2.3V0.1h2.6v4.2h2.3v2.8h-2.3v2.2
		c1.2,1.1,2.2,2.4,3.1,3.7l-1.9,2.6C37.8,14.9,37.3,14.3,36.9,13.8z M44.8,15.1l2.1,1.8c-0.9,1.2-2.1,2.4-3.5,3.6
		c-1.5,1.2-2.9,2.1-4.1,2.7l-1.5-2.7c1.1-0.5,2.4-1.3,3.8-2.4C42.8,17.1,43.9,16.1,44.8,15.1z M44.1,0.7l2.1,1.8
		c-0.6,0.9-1.4,1.8-2.3,2.6c-1,0.9-2,1.5-2.8,1.9l-1.4-2.7C40.3,4,41.1,3.5,42,2.8C42.8,2.1,43.5,1.4,44.1,0.7z M44.6,7.7l2.2,2
		c-0.7,0.9-1.5,1.7-2.5,2.6c-1.1,0.9-2.1,1.5-2.9,1.9l-1.5-2.7c0.7-0.4,1.6-0.9,2.5-1.6C43.2,9.1,43.9,8.4,44.6,7.7z"/>
	<path class="st0" d="M49.4,0.7h21.4v2.8h-7.3v3h6.3v16.9H67v-1.1H53.1v1.1h-2.8V6.5H56v-3h-6.6V0.7z M53.1,19.4H67v-3.1
		c-0.3,0-0.7,0-1,0c-0.7,0-1.6,0-2.7-0.1c-1.7-0.1-2.6-1.1-2.6-3.3V9.4h-2c-0.1,1.5-0.6,3-1.4,4.2c-0.8,1.4-1.9,2.5-3.2,3.4l-1-1.8
		V19.4z M53.1,13.8c0.9-0.7,1.6-1.5,2.1-2.3c0.4-0.7,0.7-1.5,0.8-2.2h-2.8V13.8z M60.7,6.5v-3h-2v3H60.7z M63.5,9.4v2.8
		c0,0.7,0.3,1,0.8,1.1c0.3,0.1,0.9,0.1,1.8,0.1c0.3,0,0.7,0,1-0.1v-4H63.5z"/>
	<path class="st0" d="M85.4,0.6h9.3v1.8c-0.6,1.6-1.2,2.9-2,3.8c0.7,0.3,1.6,0.7,2.7,1l-1.2,2.5C93,9.3,91.9,8.7,90.8,8
		c-0.6,0.4-1.2,0.7-1.8,1c0.5,0.2,0.9,0.4,1.3,0.6c1.9,0.7,3.7,1.3,5.5,1.7l-1.3,2.6c-1-0.3-1.9-0.7-2.9-1v5.7
		c0.4-0.3,0.7-0.5,1-0.8l1.5,2.3c-0.5,0.4-1,0.7-1.5,0.9c0.8,0.1,1.7,0.2,2.6,0.3l-1,2.7c-2.8-0.4-5.4-1-7.7-1.9
		c-1.6-0.7-3-1.5-4.3-2.5h-2.9v1.3c1.3-0.1,2.6-0.2,3.6-0.3l0.4,2.4c-2.6,0.4-5.6,0.7-8.8,1l-0.5-2.7c0.9-0.1,1.8-0.1,2.7-0.2V13
		c-0.9,0.4-1.7,0.7-2.6,1l-1.1-2.4c5-1.7,8.6-3.5,10.8-5.3l2.4,0.8c-0.2,0.2-0.3,0.3-0.5,0.5c0.5,0.2,0.9,0.4,1.4,0.7L86.7,7
		c0.7-0.2,1.3-0.4,1.9-0.7c-0.3-0.4-0.6-0.7-0.9-1.1c-0.5-0.7-0.9-1.4-1.2-2.3h-1V0.6z M78.7,0.1h2.6v0.5h3.4v1.9h-3.4v0.5h3.4v2
		c-1.5,1.4-3.1,2.6-4.7,3.4c-2,1-3.9,1.7-5.8,2l-0.7-2c1.3-0.2,2.5-0.6,3.6-1c-0.3-0.4-0.7-0.7-1-1l1.5-1.3h-1
		C75.9,6,75.4,6.6,74.9,7l-1.5-1.9C74,4.6,74.6,4,75.2,3.2c0.5-0.7,0.9-1.3,1.2-2l1.9,1.1c-0.1,0.3-0.2,0.5-0.4,0.7h0.7V0.1z
		 M78.3,5.2c0.5,0.4,0.9,0.8,1.2,1.2c0.7-0.4,1.2-0.8,1.8-1.2H78.3z M79.6,12.1h10.2c-0.2-0.1-0.5-0.2-0.7-0.3
		c-0.7-0.3-1.3-0.6-1.9-0.9v0.8h-6.1v-0.8c-0.5,0.3-1,0.6-1.5,0.8V12.1z M79.6,14.9H89v-0.5h-9.3V14.9z M79.6,17.2H89v-0.6h-9.3
		V17.2z M83.2,9.7h2c-0.4-0.2-0.7-0.4-1.1-0.6C83.8,9.3,83.5,9.5,83.2,9.7z M88.9,20.2c0.5-0.2,0.9-0.5,1.4-0.7h-3.8
		c0.7,0.3,1.4,0.5,2.2,0.7C88.8,20.2,88.9,20.2,88.9,20.2z M88.9,2.9c0.3,0.5,0.6,1,1,1.4c0.2,0.2,0.4,0.4,0.6,0.5
		c0.6-0.6,1-1.2,1.3-1.9H88.9z"/>
	<path class="st0" d="M108.1,0.1h2.7v1h9v2.5h-18.9v8.1c0,2.3-0.1,4.5-0.3,6.6c-0.2,1.7-0.4,3.5-0.8,5.2l-2.3-1.5
		c0.3-2.2,0.6-4.1,0.7-5.7c0.1-2,0.2-3.9,0.2-5.9V1.1h9.6V0.1z M101.3,15.1h4.4v2h-1.2v0.7h1.3v2h-1.3v0.7c0.4-0.1,0.8-0.1,1.2-0.2
		l0.3,1.8c-1.5,0.4-3.3,0.8-5.1,1l-0.4-2.1c0.6-0.1,1.3-0.1,1.8-0.2v-1h-1.5v-2h1.5v-0.7h-1V15.1z M101.1,4.1h7.8v2.1h-0.4v14.6
		c0.3-1,0.5-1.9,0.5-2.9l2,0.5c-0.1,1.7-0.4,3.2-1,4.6l-1.6-0.8v1h-2.3v-9.1c-1.5,0.2-3.1,0.3-4.8,0.5l-0.4-2.4c0.2,0,0.4,0,0.6,0
		V6.3h-0.6V4.1z M104.1,6.9h2.2V6.3h-2.2V6.9z M104.1,9.6h2.2V8.9h-2.2V9.6z M104.1,12.2c0.8-0.1,1.5-0.1,2.2-0.2v-0.5h-2.2V12.2z
		 M109.2,4.6h3.8V4h2.6v0.6h3.9v2.3h-3.9v0.9h3.8v6.3h-10.3V7.8h3.9V6.9h-3.8V4.6z M109.3,14.8h9.7v2.5h-3.2
		c0.3,0.4,0.6,0.8,0.9,1.3l-1.9,1.7c-0.4-0.8-0.9-1.6-1.4-2.4l0.8-0.6h-4.9V14.8z M111.3,18.3h2.2v1.8c0,0.5,0.1,0.7,0.2,0.8
		c0.2,0.1,0.4,0.2,0.6,0.2c0.3,0,0.5,0,0.6,0c0.1,0,0.2-0.1,0.3-0.1c0.1-0.1,0.2-0.4,0.2-0.9l2,1c-0.1,0.6-0.2,1.1-0.4,1.6
		c-0.1,0.3-0.4,0.5-0.8,0.6c-0.4,0.1-1.1,0.1-2,0.1c-1,0-1.6-0.1-1.8-0.3c-0.9-0.1-1.3-0.9-1.3-2.3V18.3z M111.4,11.9h0.6V10h-0.6
		V11.9z M114,10v1.9h0.6V10H114z M116.5,10v1.9h0.6V10H116.5z M119,18.2c0.5,1,0.8,2,1.1,3.2l-2.2,1c-0.2-1.2-0.5-2.3-0.9-3.3
		L119,18.2z"/>
</g>
</svg>
