<?xml version="1.0" encoding="utf-8"?>
<!-- Generator: Adobe Illustrator 21.1.0, SVG Export Plug-In . SVG Version: 6.00 Build 0)  -->
<svg version="1.1" id="圖層_1" xmlns="http://www.w3.org/2000/svg" xmlns:xlink="http://www.w3.org/1999/xlink" x="0px" y="0px"
	 viewBox="0 0 243 48" style="enable-background:new 0 0 243 48;" xml:space="preserve">
<style type="text/css">
	.st0{fill:#3D1101;}
</style>
<title>logo_l</title>
<desc>Created with Sketch.</desc>
<g>
	<path class="st0" d="M1.1,9.5h5V1h5.3v8.5h3.3v5.6h-3.3v2.4c2.1,1.7,4.1,3.7,5.8,6l-3.8,5.2c-0.6-1-1.3-1.8-1.9-2.6v22.4H6.1V30.7
		c-0.8,2.6-1.7,5-2.7,7.4L0,33.5c1.2-2.3,2.4-5.5,3.7-9.6c0.9-2.7,1.7-5.6,2.4-8.7v-0.1h-5V9.5z M25.7,28.6v20h-5.3V29.1
		c-1.3,3.9-2.9,7.4-4.7,10.6l-3.4-4.5c1.5-2.5,3.1-5.9,4.8-10.3c1.2-3.1,2.3-6.3,3.2-9.7h-4.6V9.5h4.7V1h5.3v8.5h4.6v5.6h-4.6v4.4
		c2.3,2.2,4.5,4.8,6.3,7.5l-3.8,5.2C27.4,30.9,26.6,29.7,25.7,28.6z M41.7,31.2l4.2,3.7c-1.9,2.5-4.2,4.9-7,7.3
		c-3.1,2.4-5.8,4.3-8.3,5.4l-3.1-5.5c2.2-1,4.8-2.6,7.6-4.8C37.6,35.4,39.9,33.3,41.7,31.2z M40.1,2.1l4.2,3.7
		c-1.3,1.8-2.9,3.5-4.7,5.3c-2.1,1.7-4,3-5.7,3.8l-2.8-5.4c1.4-0.7,3-1.7,4.8-3.2C37.5,4.9,39,3.5,40.1,2.1z M41.1,16.3l4.4,4
		c-1.3,1.8-3,3.5-5,5.2c-2.2,1.7-4.1,3-5.9,3.9l-3.1-5.5c1.5-0.7,3.2-1.8,5.1-3.3C38.4,19.2,39.9,17.7,41.1,16.3z"/>
	<path class="st0" d="M50.3,9.5h5V1h5.3v8.5H64v5.6h-3.3v2.4c2.1,1.7,4.1,3.7,5.8,6l-3.8,5.2c-0.6-1-1.3-1.8-1.9-2.6v22.4h-5.3V30.7
		c-0.8,2.6-1.7,5-2.7,7.4l-3.4-4.5c1.2-2.3,2.4-5.5,3.7-9.6c0.9-2.7,1.7-5.6,2.4-8.7v-0.1h-5V9.5z M74.9,28.6v20h-5.3V29.1
		c-1.3,3.9-2.9,7.4-4.7,10.6l-3.4-4.5c1.5-2.5,3.1-5.9,4.8-10.3c1.2-3.1,2.3-6.3,3.2-9.7h-4.6V9.5h4.7V1h5.3v8.5h4.6v5.6h-4.6v4.4
		c2.3,2.2,4.5,4.8,6.3,7.5l-3.8,5.2C76.6,30.9,75.7,29.7,74.9,28.6z M90.9,31.2l4.2,3.7c-1.9,2.5-4.2,4.9-7,7.3
		c-3.1,2.4-5.8,4.3-8.3,5.4l-3.1-5.5c2.2-1,4.8-2.6,7.6-4.8C86.8,35.4,89.1,33.3,90.9,31.2z M89.3,2.1l4.2,3.7
		c-1.3,1.8-2.9,3.5-4.7,5.3c-2.1,1.7-4,3-5.7,3.8l-2.8-5.4c1.4-0.7,3-1.7,4.8-3.2C86.7,4.9,88.1,3.5,89.3,2.1z M90.3,16.3l4.4,4
		c-1.3,1.8-3,3.5-5,5.2c-2.2,1.7-4.1,3-5.9,3.9l-3.1-5.5c1.5-0.7,3.2-1.8,5.1-3.3C87.5,19.2,89.1,17.7,90.3,16.3z"/>
	<path class="st0" d="M100.1,2.1h43.3v5.7h-14.8v6h12.7v34.1h-5.6v-2.3h-28.1v2.3H102V13.8h11.4v-6h-13.3V2.1z M107.5,39.9h28.1
		v-6.3c-0.7,0-1.4,0.1-2,0.1c-1.4,0-3.2-0.1-5.4-0.2c-3.5-0.1-5.3-2.3-5.3-6.6v-7.2h-4.1c-0.3,3.1-1.2,6-2.8,8.6
		c-1.7,2.8-3.8,5.1-6.4,6.9l-2.1-3.7V39.9z M107.5,28.7c1.8-1.4,3.2-2.9,4.2-4.6c0.8-1.5,1.3-3,1.5-4.4h-5.7V28.7z M123,13.8v-6h-4
		v6H123z M128.5,19.7v5.7c0,1.4,0.5,2.1,1.5,2.2c0.7,0.2,1.9,0.3,3.6,0.3c0.7,0,1.3,0,2-0.1v-8.1H128.5z"/>
	<path class="st0" d="M172.9,1.9h18.8v3.7c-1.2,3.3-2.5,5.9-4,7.8c1.5,0.7,3.3,1.4,5.4,2l-2.5,5c-2.4-0.8-4.7-1.9-7-3.3
		c-1.2,0.8-2.4,1.5-3.7,2c0.9,0.4,1.8,0.8,2.7,1.1c3.8,1.4,7.5,2.6,11.1,3.4l-2.6,5.2c-2-0.7-3.9-1.3-5.8-2.1v11.6
		c0.7-0.5,1.4-1.1,2.1-1.7l3.1,4.5c-1,0.7-2,1.4-3,1.9c1.6,0.2,3.4,0.4,5.3,0.6L191,49c-5.7-0.7-10.9-2-15.5-3.8
		c-3.3-1.4-6.1-3.1-8.6-5.1h-5.8v2.5c2.7-0.2,5.2-0.4,7.3-0.7l0.7,4.8c-5.3,0.8-11.3,1.5-17.8,2.1l-1-5.4c1.9-0.1,3.7-0.2,5.4-0.3
		v-16c-1.7,0.8-3.5,1.4-5.2,2.1l-2.3-4.8c10.1-3.4,17.3-7,21.8-10.7l4.9,1.7c-0.3,0.3-0.7,0.6-1,0.9c0.9,0.4,1.9,0.9,2.8,1.3
		l-1.4-2.7c1.4-0.4,2.6-0.9,3.7-1.4c-0.7-0.7-1.3-1.5-1.8-2.2c-1-1.3-1.8-2.9-2.4-4.5h-2.1V1.9z M159.2,1h5.2v1.1h6.9V6h-6.9V7h6.9
		v4.1c-3.1,2.9-6.3,5.2-9.6,6.9c-4,2.1-7.9,3.4-11.7,4.1l-1.4-4.1c2.5-0.5,5-1.2,7.3-2.1c-0.7-0.8-1.4-1.4-2.1-2.1l3.1-2.6h-1.9
		c-1.4,1.8-2.5,3-3.5,3.7l-2.9-3.9c1.1-1,2.2-2.2,3.5-3.7c1.1-1.3,1.9-2.7,2.5-4l3.9,2.3c-0.2,0.5-0.5,1-0.7,1.5h1.4V1z M158.5,11.2
		c0.9,0.8,1.7,1.6,2.4,2.4c1.3-0.8,2.5-1.5,3.6-2.4H158.5z M161.2,25.2h20.6c-0.5-0.2-0.9-0.4-1.4-0.6c-1.3-0.6-2.6-1.2-3.8-1.9v1.7
		h-12.3v-1.5c-1,0.6-2.1,1.2-3.1,1.7V25.2z M161.2,30.8H180v-1.1h-18.8V30.8z M161.2,35.6H180v-1.3h-18.8V35.6z M168.3,20.4h4.1
		c-0.8-0.4-1.5-0.8-2.2-1.3C169.6,19.6,168.9,20,168.3,20.4z M179.9,41.6c0.9-0.4,1.8-0.9,2.7-1.5H175c1.3,0.5,2.8,1,4.4,1.4
		C179.6,41.5,179.8,41.6,179.9,41.6z M179.9,6.6c0.6,1.1,1.2,2,1.9,2.7c0.4,0.4,0.8,0.7,1.2,1.1c1.1-1.1,2-2.4,2.7-3.8H179.9z"/>
	<path class="st0" d="M218.6,1h5.4v2.1h18.3v5h-38.1v16.4c0,4.6-0.2,9.1-0.6,13.4c-0.3,3.4-0.9,7-1.7,10.6l-4.6-2.9
		c0.7-4.4,1.2-8.2,1.5-11.4c0.3-4,0.4-7.9,0.4-11.9V3.1h19.4V1z M205,31.2h9v4.1h-2.5v1.4h2.6v4.1h-2.6v1.5c0.9-0.1,1.7-0.3,2.5-0.4
		l0.6,3.7c-3.1,0.8-6.6,1.5-10.4,2.1l-0.7-4.3c1.3-0.1,2.5-0.3,3.6-0.4v-2.1h-2.9v-4.1h2.9v-1.4H205V31.2z M204.6,9.1h15.8v4.3h-0.7
		V43c0.5-2,0.9-3.9,1.1-5.8l4,1c-0.3,3.3-0.9,6.4-1.9,9.3l-3.2-1.6v2H215V29.6c-3,0.3-6.2,0.7-9.6,1l-0.8-4.8c0.4,0,0.8-0.1,1.2-0.1
		V13.5h-1.2V9.1z M210.5,14.6h4.5v-1.2h-4.5V14.6z M210.5,20.1h4.5v-1.3h-4.5V20.1z M210.5,25.4c1.6-0.1,3.1-0.2,4.5-0.3v-0.9h-4.5
		V25.4z M220.9,10.1h7.7V8.9h5.2v1.2h7.9v4.5h-7.9v1.9h7.6v12.8h-20.8V16.5h7.9v-1.9h-7.7V10.1z M221.1,30.6h19.5v5h-6.4
		c0.6,0.8,1.3,1.7,1.9,2.6l-3.8,3.4c-0.9-1.7-1.8-3.3-2.9-4.8l1.6-1.2h-9.8V30.6z M225.2,37.6h4.4v3.7c0,0.9,0.1,1.5,0.4,1.7
		c0.3,0.3,0.8,0.4,1.3,0.4c0.6,0,1,0,1.2-0.1c0.3,0,0.4-0.1,0.6-0.3c0.2-0.2,0.4-0.8,0.5-1.8l4,2.1c-0.2,1.1-0.5,2.2-0.8,3.3
		c-0.3,0.7-0.8,1.1-1.5,1.2c-0.8,0.2-2.2,0.3-4,0.3c-2,0-3.2-0.2-3.6-0.6c-1.7-0.2-2.6-1.7-2.6-4.7V37.6z M225.4,24.8h1.3V21h-1.3
		V24.8z M230.5,21v3.8h1.2V21H230.5z M235.6,21v3.8h1.3V21H235.6z M240.7,37.4c0.9,1.9,1.7,4.1,2.3,6.4l-4.4,2.1
		c-0.4-2.5-1-4.7-1.7-6.6L240.7,37.4z"/>
</g>
</svg>
