<?xml version="1.0" encoding="utf-8"?>
<!-- Generator: Adobe Illustrator 21.1.0, SVG Export Plug-In . SVG Version: 6.00 Build 0)  -->
<svg version="1.1" id="圖層_1" xmlns="http://www.w3.org/2000/svg" xmlns:xlink="http://www.w3.org/1999/xlink" x="0px" y="0px"
	 viewBox="0 0 120 24" style="enable-background:new 0 0 120 24;" xml:space="preserve">
<style type="text/css">
	.st0{fill:#FFFFFF;}
</style>
<title>logo_w</title>
<desc>Created with Sketch.</desc>
<g>
	<path class="st0" d="M0.5,4.3H3V0.1h2.6v4.2h1.6v2.8H5.7v1.2c1.1,0.9,2,1.8,2.8,3l-1.9,2.6c-0.3-0.5-0.6-0.9-0.9-1.3v11.1H3v-8.9
		c-0.4,1.3-0.8,2.5-1.4,3.6L0,16.2c0.6-1.1,1.2-2.7,1.8-4.7C2.3,10.1,2.7,8.7,3,7.2V7.1H0.5V4.3z M12.7,13.8v9.9h-2.6V14
		c-0.6,1.9-1.4,3.7-2.3,5.3L6.1,17c0.8-1.2,1.5-2.9,2.4-5.1c0.6-1.5,1.1-3.1,1.6-4.8H7.8V4.3h2.3V0.1h2.6v4.2H15v2.8h-2.3v2.2
		c1.2,1.1,2.2,2.3,3.1,3.7l-1.9,2.6C13.5,14.9,13.1,14.3,12.7,13.8z M20.6,15.1l2.1,1.8c-0.9,1.2-2.1,2.4-3.5,3.6
		c-1.5,1.2-2.9,2.1-4.1,2.7l-1.5-2.7c1.1-0.5,2.4-1.3,3.7-2.3C18.6,17.1,19.7,16.1,20.6,15.1z M19.8,0.7l2.1,1.8
		c-0.6,0.9-1.4,1.8-2.3,2.6c-1,0.9-2,1.5-2.8,1.9l-1.4-2.7c0.7-0.3,1.5-0.8,2.3-1.6C18.5,2.1,19.2,1.4,19.8,0.7z M20.3,7.7l2.2,2
		c-0.7,0.9-1.5,1.7-2.5,2.6c-1.1,0.9-2,1.5-2.9,1.9l-1.5-2.7c0.7-0.4,1.6-0.9,2.5-1.6C18.9,9.1,19.7,8.4,20.3,7.7z"/>
	<path class="st0" d="M24.8,4.3h2.5V0.1H30v4.2h1.6v2.8H30v1.2c1.1,0.9,2,1.8,2.8,3l-1.9,2.6c-0.3-0.5-0.6-0.9-0.9-1.3v11.1h-2.6
		v-8.9c-0.4,1.3-0.8,2.5-1.4,3.6l-1.7-2.2c0.6-1.1,1.2-2.7,1.8-4.7c0.5-1.3,0.9-2.8,1.2-4.3V7.1h-2.5V4.3z M37,13.8v9.9h-2.6V14
		c-0.6,1.9-1.4,3.7-2.3,5.3L30.4,17c0.8-1.2,1.5-2.9,2.4-5.1c0.6-1.5,1.1-3.1,1.6-4.8H32V4.3h2.3V0.1H37v4.2h2.3v2.8H37v2.2
		c1.2,1.1,2.2,2.3,3.1,3.7l-1.9,2.6C37.8,14.9,37.4,14.3,37,13.8z M44.9,15.1l2.1,1.8c-0.9,1.2-2.1,2.4-3.5,3.6
		c-1.5,1.2-2.9,2.1-4.1,2.7l-1.5-2.7c1.1-0.5,2.4-1.3,3.7-2.3C42.9,17.1,44,16.1,44.9,15.1z M44.1,0.7l2.1,1.8
		c-0.6,0.9-1.4,1.8-2.3,2.6c-1,0.9-2,1.5-2.8,1.9l-1.4-2.7C40.4,4,41.1,3.5,42,2.8C42.8,2.1,43.5,1.4,44.1,0.7z M44.6,7.7l2.2,2
		c-0.7,0.9-1.5,1.7-2.5,2.6c-1.1,0.9-2,1.5-2.9,1.9l-1.5-2.7c0.7-0.4,1.6-0.9,2.5-1.6C43.2,9.1,44,8.4,44.6,7.7z"/>
	<path class="st0" d="M49.4,0.7h21.4v2.8h-7.3v3h6.3v16.8H67v-1.1H53.1v1.1h-2.8V6.5H56v-3h-6.6V0.7z M53.1,19.4H67v-3.1
		c-0.3,0-0.7,0-1,0c-0.7,0-1.6,0-2.7-0.1c-1.7-0.1-2.6-1.1-2.6-3.3V9.4h-2c-0.1,1.5-0.6,2.9-1.4,4.2c-0.8,1.4-1.9,2.5-3.2,3.4
		l-1-1.8V19.4z M53.1,13.8c0.9-0.7,1.6-1.5,2.1-2.3c0.4-0.7,0.7-1.5,0.8-2.2h-2.8V13.8z M60.7,6.5v-3h-2v3H60.7z M63.5,9.4v2.8
		c0,0.7,0.3,1,0.8,1.1c0.3,0.1,0.9,0.1,1.8,0.1c0.3,0,0.7,0,1-0.1v-4H63.5z"/>
	<path class="st0" d="M85.4,0.6h9.3v1.8c-0.6,1.6-1.2,2.9-2,3.8c0.7,0.3,1.6,0.7,2.7,1l-1.2,2.4c-1.2-0.4-2.3-0.9-3.4-1.6
		c-0.6,0.4-1.2,0.7-1.8,1c0.5,0.2,0.9,0.4,1.3,0.6c1.9,0.7,3.7,1.3,5.5,1.7l-1.3,2.6c-1-0.3-1.9-0.7-2.9-1v5.7
		c0.4-0.3,0.7-0.5,1-0.8l1.5,2.2c-0.5,0.4-1,0.7-1.5,0.9c0.8,0.1,1.7,0.2,2.6,0.3l-0.9,2.7c-2.8-0.4-5.4-1-7.6-1.9
		c-1.6-0.7-3-1.5-4.2-2.5h-2.8v1.3c1.3-0.1,2.6-0.2,3.6-0.3l0.4,2.3c-2.6,0.4-5.6,0.7-8.8,1l-0.5-2.7c0.9-0.1,1.8-0.1,2.7-0.2V13
		c-0.9,0.4-1.7,0.7-2.6,1l-1.1-2.3c5-1.7,8.5-3.5,10.7-5.3l2.4,0.8c-0.2,0.2-0.3,0.3-0.5,0.5c0.5,0.2,0.9,0.4,1.4,0.7L86.6,7
		c0.7-0.2,1.3-0.4,1.9-0.7c-0.3-0.4-0.6-0.7-0.9-1.1c-0.5-0.7-0.9-1.4-1.2-2.2h-1V0.6z M78.6,0.1h2.6v0.5h3.4v1.9h-3.4v0.5h3.4v2
		c-1.5,1.4-3.1,2.6-4.7,3.4c-2,1-3.9,1.7-5.8,2l-0.7-2c1.2-0.2,2.5-0.6,3.6-1c-0.3-0.4-0.7-0.7-1-1l1.5-1.3h-0.9
		C75.9,6,75.3,6.6,74.9,7l-1.4-1.9C74,4.6,74.5,4,75.1,3.2c0.5-0.7,0.9-1.3,1.2-2l1.9,1.1c-0.1,0.3-0.2,0.5-0.4,0.7h0.7V0.1z
		 M78.3,5.2c0.5,0.4,0.9,0.8,1.2,1.2c0.6-0.4,1.2-0.8,1.8-1.2H78.3z M79.6,12.1h10.2c-0.2-0.1-0.5-0.2-0.7-0.3
		c-0.6-0.3-1.3-0.6-1.9-0.9v0.8h-6.1v-0.8c-0.5,0.3-1,0.6-1.5,0.8V12.1z M79.6,14.9h9.3v-0.5h-9.3V14.9z M79.6,17.2h9.3v-0.6h-9.3
		V17.2z M83.1,9.7h2c-0.4-0.2-0.7-0.4-1.1-0.6C83.7,9.3,83.4,9.5,83.1,9.7z M88.9,20.2c0.5-0.2,0.9-0.5,1.4-0.7h-3.8
		c0.7,0.3,1.4,0.5,2.2,0.7C88.7,20.2,88.8,20.2,88.9,20.2z M88.8,2.9c0.3,0.5,0.6,1,0.9,1.4c0.2,0.2,0.4,0.4,0.6,0.5
		c0.6-0.6,1-1.2,1.3-1.9H88.8z"/>
	<path class="st0" d="M108,0.1h2.7v1h9v2.4h-18.8v8.1c0,2.3-0.1,4.5-0.3,6.6c-0.2,1.7-0.4,3.4-0.8,5.2l-2.3-1.5
		c0.3-2.2,0.6-4.1,0.7-5.6c0.1-2,0.2-3.9,0.2-5.9V1.2h9.6V0.1z M101.2,15.1h4.4v2h-1.2v0.7h1.3v2h-1.3v0.7c0.4-0.1,0.8-0.1,1.2-0.2
		l0.3,1.8c-1.5,0.4-3.2,0.7-5.1,1l-0.4-2.1c0.6-0.1,1.2-0.1,1.8-0.2v-1h-1.4v-2h1.4v-0.7h-1V15.1z M101,4.2h7.8v2.1h-0.4v14.6
		c0.3-1,0.5-1.9,0.5-2.9l2,0.5c-0.1,1.6-0.4,3.2-0.9,4.6l-1.6-0.8v1h-2.3v-9c-1.5,0.2-3.1,0.3-4.7,0.5l-0.4-2.4c0.2,0,0.4,0,0.6,0
		V6.3H101V4.2z M104,6.9h2.2V6.3H104V6.9z M104,9.6h2.2V8.9H104V9.6z M104,12.2c0.8-0.1,1.5-0.1,2.2-0.2v-0.5H104V12.2z M109.1,4.6
		h3.8V4.1h2.6v0.6h3.9v2.2h-3.9v0.9h3.8v6.3H109V7.8h3.9V6.9h-3.8V4.6z M109.2,14.8h9.7v2.4h-3.2c0.3,0.4,0.6,0.8,0.9,1.3l-1.9,1.7
		c-0.4-0.8-0.9-1.6-1.4-2.4l0.8-0.6h-4.9V14.8z M111.2,18.2h2.2V20c0,0.5,0.1,0.7,0.2,0.8c0.2,0.1,0.4,0.2,0.6,0.2
		c0.3,0,0.5,0,0.6,0c0.1,0,0.2-0.1,0.3-0.1c0.1-0.1,0.2-0.4,0.2-0.9l2,1c-0.1,0.6-0.2,1.1-0.4,1.6c-0.1,0.3-0.4,0.5-0.8,0.6
		c-0.4,0.1-1.1,0.1-2,0.1c-1,0-1.6-0.1-1.8-0.3c-0.9-0.1-1.3-0.9-1.3-2.3V18.2z M111.3,11.9h0.6V10h-0.6V11.9z M113.8,10v1.9h0.6V10
		H113.8z M116.3,10v1.9h0.6V10H116.3z M118.9,18.1c0.5,1,0.8,2,1.1,3.2l-2.2,1c-0.2-1.2-0.5-2.3-0.9-3.3L118.9,18.1z"/>
</g>
</svg>
